<svg xmlns="http://www.w3.org/2000/svg" id="_-e-Icon" width="59.997" height="59.997" data-name="-e-Icon" viewBox="0 0 70 70"><defs><style>.cls-1{fill:#7444ff;fill-rule:evenodd}</style></defs><path id="Shape" d="M1257.65 628.188a32.408 32.408 0 0 0 .8-7.068 31.45 31.45 0 0 0-14.65-26.82 1.157 1.157 0 0 0-1.62.4 1.225 1.225 0 0 0 .38 1.666 29.048 29.048 0 0 1 13.53 24.757 29.748 29.748 0 0 1-.68 6.23 8.144 8.144 0 0 0-1.69-.177 8.476 8.476 0 1 0 8.28 8.474 8.51 8.51 0 0 0-4.35-7.462Zm-3.93 13.512a6.055 6.055 0 1 1 5.91-6.053 5.989 5.989 0 0 1-5.91 6.053Z" class="cls-1" transform="translate(-1192 -582.125)"/><path id="Shape-2" d="M1238.32 647.394a28.474 28.474 0 0 1-11.13 2.251 28.89 28.89 0 0 1-20.65-8.781 8.733 8.733 0 0 0 2.45-6.076 8.5 8.5 0 1 0-8.5 8.666 8.339 8.339 0 0 0 4.11-1.083 31.3 31.3 0 0 0 22.59 9.75 30.816 30.816 0 0 0 12.06-2.44 1.255 1.255 0 0 0 .66-1.619 1.212 1.212 0 0 0-1.59-.668Zm-43.89-12.606a6.066 6.066 0 1 1 6.06 6.19 6.134 6.134 0 0 1-6.06-6.19Z" class="cls-1" data-name="Shape" transform="translate(-1192 -582.125)"/><path id="Shape-3" d="M1197.13 620.117h.09a1.219 1.219 0 0 0 1.21-1.132 29.041 29.041 0 0 1 20.91-25.946 8.536 8.536 0 1 0-.34-2.431 31.482 31.482 0 0 0-23 28.206 1.223 1.223 0 0 0 1.13 1.303Zm30.37-35.561a6.087 6.087 0 1 1-6.08 6.086 6.083 6.083 0 0 1 6.08-6.086Z" class="cls-1" data-name="Shape" transform="translate(-1192 -582.125)"/></svg>